# xmcd
#
# Track frame offsets: 
#        182
#        23672
#        45792
#        54712
#        77095
#        100985
#        123027
#        146435
#        168900
#        173977
#        198425
#        214280
#        236292
#        239330
#        260515
#
# Disc length: 3775 seconds
#
# Revision: 5
# Processed by: cddbd v1.5.2PL0 Copyright (c) Steve Scherf et al.
# Submitted via: ExactAudioCopy v1.0b1
#
DISCID=c10ebd0f
DTITLE=Angel Grant - K-Album
DYEAR=1998
DGENRE=R&B
TTITLE0=Hey You
TTITLE1=Knockin'
TTITLE2=OM
TTITLE3=Lil' Red Boat
TTITLE4=Kisses Luv Lips
TTITLE5=Not Here
TTITLE6=Illusions
TTITLE7=Anyway
TTITLE8=Not Afraid
TTITLE9=Well Okay, I'll Say It... (I'm N Love W,U)
TTITLE10=Deeper
TTITLE11=Whenever You Cry
TTITLE12=For The Babies
TTITLE13=Live Your Life
TTITLE14=I Love You
EXTD=
EXTT0=
EXTT1=
EXTT2=
EXTT3=
EXTT4=
EXTT5=
EXTT6=
EXTT7=
EXTT8=
EXTT9=
EXTT10=
EXTT11=
EXTT12=
EXTT13=
EXTT14=
PLAYORDER=
